<?xml version="1.0" encoding="UTF-8" standalone="no"?>
<!-- Created with Inkscape (http://www.inkscape.org/) -->

<svg
   xmlns:dc="http://purl.org/dc/elements/1.1/"
   xmlns:cc="http://creativecommons.org/ns#"
   xmlns:rdf="http://www.w3.org/1999/02/22-rdf-syntax-ns#"
   xmlns:svg="http://www.w3.org/2000/svg"
   xmlns="http://www.w3.org/2000/svg"
   xmlns:sodipodi="http://sodipodi.sourceforge.net/DTD/sodipodi-0.dtd"
   xmlns:inkscape="http://www.inkscape.org/namespaces/inkscape"
   id="svg2"
   version="1.1"
   inkscape:version="0.48.4 r9939"
   width="107"
   height="107"
   sodipodi:docname="bow.svg">
  <metadata
     id="metadata8">
    <rdf:RDF>
      <cc:Work
         rdf:about="">
        <dc:format>image/svg+xml</dc:format>
        <dc:type
           rdf:resource="http://purl.org/dc/dcmitype/StillImage" />
        <dc:title></dc:title>
      </cc:Work>
    </rdf:RDF>
  </metadata>
  <defs
     id="defs6" />
  <sodipodi:namedview
     pagecolor="#ffffff"
     bordercolor="#666666"
     borderopacity="1"
     objecttolerance="10"
     gridtolerance="10"
     guidetolerance="10"
     inkscape:pageopacity="0"
     inkscape:pageshadow="2"
     inkscape:window-width="1600"
     inkscape:window-height="843"
     id="namedview4"
     showgrid="false"
     inkscape:zoom="5.932713"
     inkscape:cx="65.542214"
     inkscape:cy="49.803324"
     inkscape:window-x="0"
     inkscape:window-y="0"
     inkscape:window-maximized="1"
     inkscape:current-layer="g3041" />
  <g
     id="g3041"
     transform="translate(0,-360)">
    <path
       style="fill:#000000"
       d="m 21.995831,419.96236 c 1.27673,-1.08716 2.5808,-2.15455 3.94639,-3.12267 1.11303,-0.66187 1.99477,-1.69457 3.23063,-2.13377 1.33675,-0.94181 2.83858,-1.61669 4.09563,-2.67166 1.00683,-0.75543 2.05864,-1.47439 2.97159,-2.3488 0.81995,-0.81261 1.63308,-1.61838 2.30453,-2.56136 0.80404,-0.40608 2.02872,0.14448 2.44872,-1.11283 1.20443,-1.12183 2.13902,-2.52289 3.39806,-3.60694 0.87767,-1.01185 1.969,-1.76438 2.97487,-2.62172 0.92769,-0.43861 0.075,-1.58381 1.17962,-2.06304 1.24412,-1.0367 2.15719,-2.36724 3.20638,-3.5831 0.9636,-1.46057 1.94313,-2.90182 2.93937,-4.33802 0.57928,-1.08018 1.17599,-2.13363 1.95331,-3.06862 0.87981,-1.17387 1.6573,-2.43568 2.73974,-3.43298 1.00302,-1.19916 2.18411,-2.23532 3.38878,-3.23259 0.98953,-0.76396 2.03083,-1.47301 3.1564,-2.01488 0.97927,-0.53106 1.9979,-1.08159 3.05508,-1.46809 1.21699,-0.38231 2.39551,-0.85809 3.65007,-1.0764 1.37519,-0.46736 2.86383,-0.45037 4.25632,-0.83397 1.40883,-0.17486 2.81658,-0.21246 4.21397,-0.45707 1.86213,-0.11967 3.71102,-0.40804 5.57903,-0.42077 1.34663,-0.27666 2.71859,-0.42705 4.06084,-0.67394 1.34017,-0.526 2.79489,-0.75236 4.12428,-1.33177 1.73586,-0.64588 3.27519,-1.91558 4.18472,-3.5362 0.0738,-0.93438 -0.34209,-2.66993 1.149129,-2.58132 1.51469,0.50188 1.41839,-1.37415 2.14068,-2.09295 1.40231,-0.26504 0.64545,1.818 0.41983,2.57629 -0.62906,1.07955 -1.02735,2.20686 -1.27506,3.40664 -3.419309,3.85359 -4.128789,4.71491 -6.916809,7.15824 -3.5752,3.59392 -7.10394,7.20031 -10.75746,10.71269 -1.30177,1.25442 -2.59558,2.53885 -3.88576,3.81509 -0.84828,0.62345 -1.48818,1.64768 -2.39051,2.36959 -0.88862,0.85374 -1.75393,1.64326 -2.57592,2.54489 -0.85125,0.65168 -1.39633,1.59778 -2.27511,2.27328 -2.26059,2.25508 -4.52882,4.52515 -6.84702,6.70698 -1.01787,1.14451 -2.217,2.1491 -3.27813,3.26712 -1.27441,1.27533 -2.55206,2.54471 -3.84453,3.79955 -0.87069,0.92869 -1.8527,1.76332 -2.72387,2.70295 -1.06048,0.96542 -1.97181,1.81214 -2.87013,2.81672 -4.57507,4.43447 -9.12213,8.898 -13.64918,13.38114 -3.15868,3.02598 -6.25708,6.11356 -9.42874,9.12622 -2.99441,2.86225 -5.88391,5.83617 -8.8886,8.68484 -2.22255,2.24733 -4.63229,4.32182 -6.75106,6.66369 -3.43198,3.37032 -2.65892,2.48603 -6.0373102,5.7729 -0.9702,0.47949 -1.77787,1.35347 -2.84302,1.7774 -0.86727,0.9249 -2.6376,-0.43588 -1.0728,-1.0326 1.13871,-0.52069 1.09581,-1.85439 1.22002,-2.8799 0.85027,-0.90111 2.32004,-0.0452 3.1064,-1.15076 1.15757,-0.90195 1.5895602,-2.35149 2.3592502,-3.54464 0.46583,-1.17207 0.89014,-2.33082 1.18171,-3.55042 0.0496,-1.04182 0.41457,-2.03073 0.38666,-3.10414 0.0847,-1.23604 0.18461,-2.4693 0.22439,-3.71031 -0.0275,-1.07509 0.0153,-2.16397 0.0909,-3.23937 0.0929,-2.59091 0.3619,-5.16839 0.89361,-7.70445 0.4587,-1.23295 0.60837,-2.6063 1.28017,-3.75492 0.41406,-1.14359 1.05905,-2.16776 1.67002,-3.20924 0.70238,-1.14566 1.4361,-2.27802 2.31966,-3.3044 0.87493,-1.05793 1.87689,-1.99216 2.80981,-2.98601 z m -1.72063,2.57137 c 46.9085,-47.57643 23.45425,-23.78822 0,0 z m -3.66783,7.64683 c -0.52179,2.32177 -1.45729,3.95712 -1.70337,6.0971 0.16475,1.07503 -0.72467,1.97122 -0.32804,2.89238 -0.25707,0.70016 -0.0155,1.57948 -0.37721,2.24143 0.2519,1.05433 -0.11876,2.21297 -0.12277,3.33742 -0.14073,0.94653 -0.0704,1.87495 -0.22958,2.81281 -0.24243,1.27756 -0.30263,2.57312 -0.66926,3.82042 -0.2344,1.19846 -0.69752,2.29929 -1.2587,3.38586 -0.54339,1.14198 -1.21125,2.19608 -1.9503002,3.22878 -0.43541,0.88325 -2.01776,1.47872 -2.17727,1.99611 1.34688,-0.19689 2.2952302,-1.08253 2.9051802,-2.2372 0.79765,-1.13152 1.55542,-2.32126 2.07582,-3.6178 0.21068,-1.08448 0.81643,-2.02944 0.9969,-3.1259 0.41148,-1.30637 0.53534,-2.66589 0.87441,-3.99386 0.11096,-1.07709 0.20657,-2.19623 0.38669,-3.29233 0.0898,-1.21057 0.44091,-2.3886 0.49578,-3.60607 0.23793,-1.22085 0.41134,-2.46344 0.87757,-3.6302 0.28562,-1.19053 0.68421,-2.3487 1.15063,-3.48824 0.48921,-1.0652 1.06512,-2.10059 1.56794,-3.17075 0.71927,-1.03469 1.50344,-2.03853 2.35313,-2.98541 1.09634,-1.428 2.40678,-2.67786 3.83411,-3.76804 0.96633,-0.83398 1.95295,-1.61401 3.06264,-2.24557 1.14562,-0.62623 2.21235,-1.38985 3.44288,-1.85106 1.44363,-0.8843 3.07254,-1.40234 4.4523,-2.39526 1.87058,-1.1969 3.65552,-2.54133 5.30506,-4.03042 0.68082,-0.60393 1.68462,-1.41259 0.42029,-1.97734 -0.38491,-0.41812 -0.38762,-0.37844 -0.89949,-0.53596 -10.76098,5.98365 -19.53846,10.60841 -24.48534,20.1391 z m 41.89338,-41.42746 c -1.12967,2.18634 -2.56551,2.41115 -4.88705,8.18781 -0.55581,0.88442 -0.67589,0.82952 -1.13323,1.36207 -3.19063,3.86845 0.0985,3.52241 0.52742,2.87766 1.24014,-1.25299 2.27924,-2.67986 3.39689,-4.03908 0.81672,-1.21246 1.55138,-2.47975 2.2841,-3.73813 0.4812,-1.22705 1.0767,-2.40386 1.58826,-3.61735 0.6622,-1.24446 1.41332,-2.43579 2.27486,-3.55789 1.13241,-1.45584 2.53575,-2.6859 3.96973,-3.83702 1.26169,-0.69623 2.29003,-1.76958 3.67542,-2.25482 1.16863,-0.62441 2.40642,-1.08583 3.68228,-1.43567 1.3853,-0.49433 2.78291,-0.80405 4.19382,-1.16963 1.03859,-0.39683 2.16631,-0.51574 3.22795,-0.82297 1.84322,-0.3244 3.68817,-0.67209 5.54188,-0.92878 1.0899,-0.27861 2.17797,-0.47088 3.27198,-0.75726 1.22967,-0.29909 2.44805,-0.65255 3.61558,-1.08598 1.1593,-0.63942 2.48377,-0.99691 3.53331,-1.8232 1.16564,-0.8532 2.3249,-1.81147 3.060199,-3.0826 0.32002,-0.97379 -0.443879,-0.739 -0.503819,0.067 -0.69446,0.99288 -1.4638,1.84264 -2.53128,2.44098 -1.05109,0.85857 -2.35283,1.26958 -3.54768,1.88126 -1.13246,0.34041 -2.22764,0.73726 -3.35867,0.94052 -1.12769,0.31937 -2.28778,0.544 -3.47105,0.56181 -1.15086,0.35369 -2.34885,0.3571 -3.5236,0.51716 -1.1362,-0.0874 -2.25625,0.37182 -3.28619,0.36257 -2.37933,0.37081 -4.60716,0.89577 -6.76005,1.38886 -0.97042,0.32983 -2.06234,0.61845 -2.92662,0.9796 -5.35075,1.6585 -9.09097,6.2982 -11.91449,10.58301 z m -34.28921,35.88594 c -1.85769,1.81382 -3.59512,3.77628 -4.91036,6.0247 -0.65455,1.3137 -1.49329,2.59815 -1.73828,4.07995 -0.34409,0.83602 -0.55263,1.73398 -0.83157,2.60712 -0.3995,0.92032 -0.43202,1.95981 -0.61932,2.88817 -0.1814,1.30686 -0.43529,2.59886 -0.56713,3.9078 -0.0889,1.37375 -0.40817,2.71711 -0.64737,4.05433 -0.26427,1.2014 -0.511,2.51172 -0.9388,3.69752 -0.27828,1.04688 -0.63377,2.07945 -1.0565,3.08713 -0.16066,0.50891 -0.92852,1.45872 -0.70921,1.72138 2.51793,-2.28253 4.795,-4.82236 7.30616,-7.11508 5.01404,-4.82152 9.88352,-9.79193 14.93222,-14.57815 3.91252,-3.83176 7.82964,-7.65895 11.72247,-11.51071 4.66467,-4.56151 9.29683,-9.15642 13.96047,-13.71797 6.32036,-6.32953 12.81398,-12.48338 19.12469,-18.82237 3.20075,-3.19893 6.43595,-6.36584 9.62799,-9.56762 4.59226,-4.64255 3.92511,-4.13164 6.73667,-6.762 0.41858,-0.55751 1.37073,-1.26208 1.45034,-1.75748 -1.21509,0.76247 -2.52066,1.51006 -3.96692,1.70306 -1.65459,0.71656 -3.3997,1.27522 -5.198,1.46243 -1.27286,0.35999 -2.59545,0.52272 -3.90129,0.78526 -1.79347,0.40903 -3.59829,0.73014 -5.39656,1.08462 -1.52185,0.4811 -3.13876,0.63196 -4.61057,1.27407 -1.19191,0.36732 -2.36706,0.78697 -3.46529,1.38535 -1.41007,0.6144 -2.63891,1.5544 -3.9074,2.40615 -0.86853,0.7285 -1.84813,1.32805 -2.56554,2.24261 -1.186,1.24898 -2.09906,2.72322 -2.9708,4.19394 -0.741,1.40671 -1.22178,2.92793 -2.05022,4.29114 -0.69303,1.35434 -1.5449,2.62748 -2.39705,3.89401 -1.33748,1.73588 -2.66516,3.5533 -4.43041,4.88344 -1.24842,-0.0142 -1.78854,1.52689 -2.72876,2.21403 -1.84068,2.02725 -3.8474,3.90943 -5.93415,5.67629 0.0598,0.93428 -0.6992,1.59374 -1.36631,2.28955 -1.5625,1.48229 -3.311,2.76952 -5.06733,4.01003 -1.58168,1.02044 -3.28907,1.8375 -4.97933,2.6599 -1.07267,0.51961 -2.13177,1.04698 -3.11627,1.73085 -1.13829,0.58014 -2.16531,1.33043 -3.11381,2.18399 -0.60754,0.38762 -1.17284,0.87979 -1.67649,1.39253 z"
       id="path3043"
       inkscape:connector-curvature="0"
       sodipodi:nodetypes="cccccccccccccccccccccccccccccccccccccccccccccccccccccccccccccccccccccccccccccccccccccccccccccccccccccccccccccccccccccccccccccccccccccccccccccccccccccccccc" />
  </g>
</svg>
