<?xml version="1.0" encoding="UTF-8" standalone="no"?>
<svg
   xmlns:dc="http://purl.org/dc/elements/1.1/"
   xmlns:cc="http://creativecommons.org/ns#"
   xmlns:rdf="http://www.w3.org/1999/02/22-rdf-syntax-ns#"
   xmlns:svg="http://www.w3.org/2000/svg"
   xmlns="http://www.w3.org/2000/svg"
   xmlns:sodipodi="http://sodipodi.sourceforge.net/DTD/sodipodi-0.dtd"
   xmlns:inkscape="http://www.inkscape.org/namespaces/inkscape"
   id="svg2"
   viewBox="0 0 107 107"
   version="1.1"
   inkscape:version="0.48.4 r9939"
   width="100%"
   height="100%"
   sodipodi:docname="woman.svg">
  <defs
     id="defs4278" />
  <sodipodi:namedview
     pagecolor="#ffffff"
     bordercolor="#666666"
     borderopacity="1"
     objecttolerance="10"
     gridtolerance="10"
     guidetolerance="10"
     inkscape:pageopacity="0"
     inkscape:pageshadow="2"
     inkscape:window-width="1600"
     inkscape:window-height="843"
     id="namedview4276"
     showgrid="false"
     inkscape:zoom="3.9669282"
     inkscape:cx="71.028167"
     inkscape:cy="58.540474"
     inkscape:window-x="0"
     inkscape:window-y="0"
     inkscape:window-maximized="1"
     inkscape:current-layer="g3867" />
  <g
     transform="matrix(1.7125,0,0,1.7125,-7.3342,-1556.6367)"
     id="g3867">
    <g
       id="g4799"
       transform="matrix(0.10636659,0,0,0.10636659,10.22566,866.20773)">
      <path
         id="path3071"
         d="m 276.39,696.83 c 2.3692,-5.5888 6.9183,-12.684 12.561,-14.921 17.712,-7.0222 47.007,1.8258 63.835,-7.1107 7.4251,-3.9432 10.481,-12.178 9.7184,-19.399 -0.30642,-2.903 -2.646,-5.4774 -2.5,-8.3929 0.30564,-6.1051 7.9202,-10.927 6.9643,-16.964 -0.40287,-2.5444 -3.0576,-4.4446 -5,-5.8928 3.2434,-4.9759 6.1045,-7.0698 6.4286,-11.429 0.0992,-1.334 -0.90424,-2.5194 -1.4286,-3.75 -1.4194,-3.3314 -3.205,-4.5087 -3.3929,-8.125 -0.43914,-8.4551 12.118,-10.698 10.973,-18.988 -0.61387,-4.4473 -6.6117,-6.4644 -11.33,-10.03 -7.0686,-5.3409 -14.246,-12.366 -15.893,-21.071 -1.1903,-6.291 5.3636,-11.674 4.6429,-18.036 -2.1,-18.52 -16.35,-33.78 -27.68,-48.57 -12.65,-16.51 -24.73,-36.89 -44.29,-43.93 -29.914,-10.774 -66.666,-5.8558 -95,8.5714 -20.299,10.336 -34.876,31.023 -45,51.429 -12.639,25.474 -24.161,56.014 -17.143,83.571 5.9214,23.25 36.648,33.092 46.429,55 4.2139,9.4394 5.3802,20.435 4.2857,30.714 -2.1274,19.98 -20.714,56.607 -20.714,56.607 h 125.71 c 0,0 -6.9523,-18.04 -2.1862,-29.284 z"
         inkscape:connector-curvature="0"
         style="fill:#ebd5c8;fill-opacity:0.47087378" />
      <path
         id="path3865"
         d="m 334.89,564.68 c 0.15625,-0.15625 7.0312,-6.5625 7.0312,-6.5625 0.55754,0.72003 0.23963,0.94275 1.808,2.3661 -0.11871,1.2796 -0.28232,2.9806 -1.2946,3.7723 -0.85292,0.66705 -1.8904,0.45982 -2.9688,0.55804 -1.4968,0.13634 -4.5089,-0.0223 -4.5089,-0.0223"
         inkscape:connector-curvature="0"
         style="fill:#e6e6e6" />
      <path
         id="path3841"
         d="m 358.04,628.43 c 0.64881,-1.6449 2.0712,-3.6321 3.8393,-3.6607 1.8757,-0.0303 3.3367,2.0827 4.1964,3.75 0.49406,0.95814 0.62118,2.1691 0.35714,3.2143 -0.23051,0.91249 -0.75087,1.9308 -1.6071,2.3214 -2.2337,1.0189 -7.3214,-0.80357 -7.3214,-0.80357 l -1.0714,4.3304 c 0.0388,0 0.53011,-6.4212 1.6071,-9.1518 z"
         inkscape:connector-curvature="0"
         style="fill:#ff0000" />
      <path
         id="path3843"
         d="m 357.5,614.15 c 1.2515,-12.404 -0.84447,-21.157 -4.8214,-27.857 6.997,11.027 5.5106,15.177 4.8214,27.857 z"
         inkscape:connector-curvature="0"
         style="fill:#ce9878" />
      <path
         id="path3847"
         d="m 342.59,561.07 c 0,2.0464 -0.6396,3.7054 -1.4286,3.7054 -0.78898,0 -1.4286,-1.6589 -1.4286,-3.7054 0,-2.0464 0.6396,-3.7054 1.4286,-3.7054 0.78897,0 1.4286,1.6589 1.4286,3.7054 z"
         inkscape:connector-curvature="0"
         style="fill:#494997" />
      <path
         id="path3845"
         d="m 342.14,563.79 c -1.9936,1.2191 -6.9643,0.80357 -6.9643,0.80357 l 4.82,-3.83 8.2143,-0.35714 -7.0536,-0.89286 7.4107,-1.3393 h -6.1607 c 0.71428,0 6.875,-1.6964 6.875,-1.6964 h -4.1964 c -0.35715,0 4.6428,-2.1428 4.6428,-2.1428 l -3.75,0.44643 4.7322,-1.6964 -3.3036,0.17857 3.75,-2.2321 -4.1964,0.80357 c -5.643,3.2529 -8.8002,8.3701 -12.679,12.946 l 8.75,0.53571 4.1071,-0.53571 -4.1071,-0.44643 2.7678,-0.80357 -2.2321,-0.35715 c 1.2186,-4.6376 0.29717,-0.53715 -1.4286,0.625 z"
         inkscape:connector-curvature="0" />
      <path
         id="path3851"
         d="m 351.69,536.22 c -8.9775,3.2461 -8.4025,6.6986 -14.719,17.562 4.1251,-6.392 7.2308,-9.2611 12.5,-12.031 2.3856,-2.0184 1.9511,-3.6615 2.2188,-5.5312 z"
         inkscape:connector-curvature="0" />
      <path
         id="path3856"
         d="m 367.53,610.09 c -0.31327,1.4746 -0.90288,4.0455 -1.625,5.4688 -1.5543,3.0634 -4.7684,5.0724 -6.3438,8.125 -0.54037,1.0471 -1.0315,2.7482 -1.4062,4.1875 0.26211,-0.6317 0.56381,-1.3241 0.9375,-1.6875 0.92659,-0.90096 2.2624,-1.1891 3.5625,-1.5312 -0.22855,-0.17173 -0.4724,-0.33962 -0.6875,-0.5 3.2434,-4.9759 6.1135,-7.0787 6.4375,-11.438 0.0688,-0.92487 -0.41086,-1.7784 -0.875,-2.625 z m -9.41,17.85 c -0.31824,0.77937 -0.53125,1.4688 -0.53125,1.4688 l -0.09,1.15 c 0,0 0.24871,-1.1719 0.625,-2.625 z"
         inkscape:connector-curvature="0"
         style="fill:#ff0000" />
      <path
         id="path3861"
         d="M 90.664,690.24 C 110.72,608.14 96.596,507.56 160,450.93 c 26,-23.221 64.464,-31.204 99.286,-32.857 17.077,-0.81075 35.239,2.8028 50,11.429 15.28,8.9292 28.178,23.273 35.714,39.286 4.3013,9.14 4.7317,19.908 4.2857,30 -0.69094,15.636 -5.9981,30.791 -10.714,45.714 -9.5166,30.113 -63.128,58.676 -55.714,80.714 29.041,86.327 106.41,127.48 175,76.429 l -32.87,32.14 25,5 21.429,-9.2857 c -33.13,18.84 -58.856,20.246 -97.143,19.286 -0.84428,36.218 -20.023,55.279 -51.429,70.714 15.94,-16.967 39.593,-31.816 12.857,-52.857 -53.508,79.275 -21.217,109.19 42.857,167.86 l -101.44,-70.71 c -6.3697,38.414 -16.941,52.143 -59.286,42.143 -17.552,9.1267 37.505,71.569 32.143,67.143 -71.932,-12.907 -105.44,-22.31 -139.29,-94.286 -1.2417,32.022 1.391,63.373 6.4286,95 l -24.997,-49.28 c -12.068,29.753 -24.824,40.245 -58.571,40 43.147,-9.1494 48.756,-36.603 39.286,-75.714 -5.6244,-22.98 -34.286,-62.143 -34.286,-62.143 -15.282,24.376 -7.3685,27.462 3.5714,55 -102.8,-68.16 34.827,-135.35 48.521,-191.41 z"
         inkscape:connector-curvature="0" />
      <path
         id="path3863"
         transform="translate(1.0733,-0.31567)"
         d="m 341.24,562 c 0,0.41842 -0.1696,0.75761 -0.37881,0.75761 -0.20921,0 -0.3788,-0.33919 -0.3788,-0.75761 0,-0.41842 0.16959,-0.75762 0.3788,-0.75762 0.20921,0 0.37881,0.3392 0.37881,0.75762 z"
         inkscape:connector-curvature="0" />
    </g>
  </g>
  <metadata
     id="metadata4274">
    <rdf:RDF>
      <cc:Work>
        <dc:format>image/svg+xml</dc:format>
        <dc:type
           rdf:resource="http://purl.org/dc/dcmitype/StillImage" />
        <cc:license
           rdf:resource="http://creativecommons.org/licenses/publicdomain/" />
        <dc:publisher>
          <cc:Agent
             rdf:about="http://openclipart.org/">
            <dc:title>Openclipart</dc:title>
          </cc:Agent>
        </dc:publisher>
        <dc:title></dc:title>
        <dc:date>2011-07-28T06:21:58</dc:date>
        <dc:description>beauty, brunette, clip art, clipart, face, girl, head, woman, </dc:description>
        <dc:source>http://openclipart.org/detail/152191/beauty-no-26-by-rones</dc:source>
        <dc:creator>
          <cc:Agent>
            <dc:title>rones</dc:title>
          </cc:Agent>
        </dc:creator>
        <dc:subject>
          <rdf:Bag>
            <rdf:li>beauty</rdf:li>
            <rdf:li>brunette</rdf:li>
            <rdf:li>clip art</rdf:li>
            <rdf:li>clipart</rdf:li>
            <rdf:li>face</rdf:li>
            <rdf:li>girl</rdf:li>
            <rdf:li>head</rdf:li>
            <rdf:li>woman</rdf:li>
          </rdf:Bag>
        </dc:subject>
      </cc:Work>
      <cc:License
         rdf:about="http://creativecommons.org/licenses/publicdomain/">
        <cc:permits
           rdf:resource="http://creativecommons.org/ns#Reproduction" />
        <cc:permits
           rdf:resource="http://creativecommons.org/ns#Distribution" />
        <cc:permits
           rdf:resource="http://creativecommons.org/ns#DerivativeWorks" />
      </cc:License>
    </rdf:RDF>
  </metadata>
</svg>
