<?xml version="1.0" encoding="UTF-8" standalone="no"?>
<!-- Created with Inkscape (http://www.inkscape.org/) -->

<svg
   xmlns:dc="http://purl.org/dc/elements/1.1/"
   xmlns:cc="http://creativecommons.org/ns#"
   xmlns:rdf="http://www.w3.org/1999/02/22-rdf-syntax-ns#"
   xmlns:svg="http://www.w3.org/2000/svg"
   xmlns="http://www.w3.org/2000/svg"
   xmlns:sodipodi="http://sodipodi.sourceforge.net/DTD/sodipodi-0.dtd"
   xmlns:inkscape="http://www.inkscape.org/namespaces/inkscape"
   sodipodi:docname="cannibals.svg"
   inkscape:version="0.48.4 r9939"
   version="1.1"
   id="svg2"
   height="107"
   width="107">
  <sodipodi:namedview
     id="base"
     pagecolor="#ffffff"
     bordercolor="#666666"
     borderopacity="1.0"
     inkscape:pageopacity="0.0"
     inkscape:pageshadow="2"
     inkscape:zoom="1"
     inkscape:cx="42.311401"
     inkscape:cy="60.943923"
     inkscape:document-units="px"
     inkscape:current-layer="g4389"
     showgrid="false"
     inkscape:window-width="1600"
     inkscape:window-height="843"
     inkscape:window-x="0"
     inkscape:window-y="0"
     inkscape:window-maximized="1" />
  <defs
     id="defs4">
    <inkscape:path-effect
       pattern-nodetypes="ccccccc"
       fuse_tolerance="0"
       vertical_pattern="false"
       prop_units="false"
       tang_offset="0"
       normal_offset="0"
       spacing="0"
       scale_y_rel="false"
       prop_scale="1"
       copytype="single_stretched"
       pattern="m -68.358573,476.71106 c 24.157453,61.47521 -18.583768,35.47183 -47.163177,69.67846 l -39.73969,-2.07323 26.47337,-65.50164 -21.38148,-116.77775 c 43.38429,30.22722 39.57246,77.51379 54.598637,110.46966 z"
       is_visible="true"
       id="path-effect4064"
       effect="skeletal" />
    <inkscape:path-effect
       is_visible="true"
       id="path-effect4062"
       effect="spiro" />
    <inkscape:path-effect
       effect="skeletal"
       id="path-effect4044"
       is_visible="true"
       pattern="m -46.947856,419.76701 -12.41424,87.16584 c 67.0417246,55.54195 -5.157362,25.48998 -25.67209,106.40961 l -27.733314,-59.29199 -65.31548,4.3086 47.81996,-44.69817 -24.28132,-60.78728 57.287684,31.66699 z"
       copytype="single_stretched"
       prop_scale="1"
       scale_y_rel="false"
       spacing="0"
       normal_offset="0"
       tang_offset="0"
       prop_units="false"
       vertical_pattern="false"
       fuse_tolerance="0"
       pattern-nodetypes="ccccccccc" />
    <inkscape:path-effect
       effect="spiro"
       id="path-effect4042"
       is_visible="true" />
    <inkscape:path-effect
       pattern-nodetypes="ccccccccc"
       fuse_tolerance="0"
       vertical_pattern="false"
       prop_units="false"
       tang_offset="0"
       normal_offset="0"
       spacing="0"
       scale_y_rel="false"
       prop_scale="1"
       copytype="single_stretched"
       pattern="m -46.947856,419.76701 -12.41424,87.16584 c 67.0417246,55.54195 -5.157362,25.48998 -25.67209,106.40961 l -27.733314,-59.29199 -65.31548,4.3086 47.81996,-44.69817 -24.28132,-60.78728 57.287684,31.66699 z"
       is_visible="true"
       id="path-effect4032"
       effect="skeletal" />
    <inkscape:path-effect
       is_visible="true"
       id="path-effect4016"
       effect="spiro" />
    <inkscape:path-effect
       pattern-nodetypes="cscccccc"
       fuse_tolerance="0"
       vertical_pattern="false"
       prop_units="false"
       tang_offset="0"
       normal_offset="0"
       spacing="0"
       scale_y_rel="false"
       prop_scale="1"
       copytype="single_stretched"
       pattern="m -125.21428,-2008.0714 265.71431,-34.2858 -380,-468.5714 617.14286,157.1429 -931.42858,-180 942.85718,-122.8572 -848.57146,394.2857 z"
       is_visible="true"
       id="path-effect3984"
       effect="skeletal" />
    <inkscape:path-effect
       is_visible="true"
       id="path-effect3982"
       effect="spiro" />
    <linearGradient
       id="linearGradient3800">
      <stop
         style="stop-color:#ed8dbe;stop-opacity:1;"
         offset="0"
         id="stop3802" />
      <stop
         id="stop3812"
         offset="0.40986422"
         style="stop-color:#ed8b00;stop-opacity:0.8745098;" />
      <stop
         id="stop3810"
         offset="0.69911504"
         style="stop-color:#ed8900;stop-opacity:0.74901961;" />
      <stop
         id="stop3808"
         offset="1"
         style="stop-color:#edd400;stop-opacity:0.49803922;" />
      <stop
         style="stop-color:#edd400;stop-opacity:0;"
         offset="1"
         id="stop3804" />
    </linearGradient>
  </defs>
  <metadata
     id="metadata7">
    <rdf:RDF>
      <cc:Work
         rdf:about="">
        <dc:format>image/svg+xml</dc:format>
        <dc:type
           rdf:resource="http://purl.org/dc/dcmitype/StillImage" />
        <dc:title></dc:title>
      </cc:Work>
    </rdf:RDF>
  </metadata>
  <g
     id="layer1"
     inkscape:groupmode="layer"
     inkscape:label="Calque 1"
     transform="translate(0,-945.36218)">
    <g
       id="g4389"
       transform="translate(378.23663,354.25461)">
      <g
         id="g6328"
         transform="translate(19.81669,1.3182997)">
        <path
           inkscape:connector-curvature="0"
           id="path4383"
           d="m -314.67046,651.13131 c -1.84328,0 -3.33898,2.14615 -3.33898,4.7929 0,2.64676 1.4957,4.78994 3.33898,4.78994 1.84328,0 3.336,-2.14318 3.336,-4.78994 0,-2.64675 -1.49272,-4.7929 -3.336,-4.7929 z m 0,2.224 c 0.98747,0 1.78693,1.151 1.78693,2.5689 0,1.41791 -0.79946,2.56593 -1.78693,2.56593 -0.98747,0 -1.78991,-1.14802 -1.78991,-2.56593 0,-1.4179 0.80244,-2.5689 1.78991,-2.5689 z"
           style="fill:#000000;fill-opacity:1;fill-rule:evenodd;stroke:none" />
        <path
           style="fill:#000000;fill-opacity:1;fill-rule:evenodd;stroke:none"
           d="m -374.4332,651.13131 c -1.84328,0 -3.33898,2.14615 -3.33898,4.7929 0,2.64676 1.4957,4.78994 3.33898,4.78994 1.84328,0 3.336,-2.14318 3.336,-4.78994 0,-2.64675 -1.49272,-4.7929 -3.336,-4.7929 z m 0,2.224 c 0.98747,0 1.78693,1.151 1.78693,2.5689 0,1.41791 -0.79946,2.56593 -1.78693,2.56593 -0.98747,0 -1.78991,-1.14802 -1.78991,-2.56593 0,-1.4179 0.80244,-2.5689 1.78991,-2.5689 z"
           id="path4378"
           inkscape:connector-curvature="0" />
        <path
           sodipodi:nodetypes="cccccc"
           inkscape:connector-curvature="0"
           id="path4105"
           d="m -344.80683,689.17001 c -13.61482,-6.19679 -25.72483,-24.39638 -25.84223,-40.49128 3.44606,-13.70408 6.89211,-29.89836 10.33817,-43.60244 16.49054,-14.50262 23.58046,-4.98141 32.23155,0.55014 3.19402,14.56587 6.38803,35.25504 9.58204,49.82091 -1.69031,9.78612 -12.85539,27.5562 -26.30953,33.72267 z"
           style="fill:#000000;fill-opacity:1;fill-rule:evenodd;stroke:none" />
        <path
           inkscape:connector-curvature="0"
           id="path4060"
           d="m -315.98078,611.34769 c -0.41547,-0.53352 -0.84723,-1.01214 -1.29131,-1.43987 -0.71053,-0.68438 -1.45365,-1.23525 -2.21467,-1.67097 -1.52203,-0.87144 -3.11713,-1.27353 -4.70803,-1.30537 -1.01763,-0.0299 -2.03329,0.0994 -3.02772,0.35919 -0.99443,0.25978 -1.96866,0.64599 -2.91273,1.13868 -0.94408,0.4927 -1.85596,1.08985 -2.73096,1.76599 -0.87501,0.67615 -1.71077,1.43415 -2.50474,2.25095 -1.38481,1.45963 -2.58065,3.03533 -3.61446,4.62634 -1.0338,1.59101 -1.90798,3.19749 -2.65105,4.76094 -0.48567,1.01854 -0.92049,2.01546 -1.31141,2.9848 -0.39091,0.96934 -0.73598,1.91096 -1.0471,2.82325 -0.36256,1.06313 -0.67696,2.08405 -0.94993,3.06451 -0.2418,-0.81917 -0.51193,-1.66593 -0.81637,-2.54062 -0.31579,-0.90729 -0.66765,-1.84475 -1.06352,-2.80782 -0.39587,-0.96307 -0.83732,-1.95161 -1.32819,-2.96236 -0.75107,-1.55154 -1.63281,-3.14373 -2.67473,-4.7182 -1.04192,-1.57446 -2.2422,-3.1336 -3.63444,-4.57109 -0.79813,-0.80411 -1.63889,-1.54725 -2.51733,-2.20942 -0.87844,-0.66217 -1.79568,-1.24252 -2.74224,-1.72014 -0.94656,-0.47762 -1.92158,-0.85179 -2.91729,-1.0957 -0.99572,-0.24391 -2.0125,-0.35963 -3.02993,-0.31349 -1.59067,0.0572 -3.18408,0.48665 -4.70158,1.38231 -0.75875,0.44783 -1.4971,1.01553 -2.20409,1.7112 -0.70699,0.69567 -1.38243,1.52062 -2.0089,2.49107 -0.67782,1.06501 -1.28482,2.28413 -1.8028,3.65855 -0.51799,1.37441 -0.94551,2.90069 -1.26402,4.57881 -0.0218,0.11381 -0.0434,0.23345 -0.0643,0.34864 0.0366,-0.102 0.0748,-0.20557 0.11233,-0.30598 1.04777,-2.82251 2.47986,-5.01868 4.16194,-6.5095 2.7095,-2.36804 5.94033,-2.81007 9.03591,-1.7826 2.70458,0.89184 5.31469,2.94549 7.36281,5.60496 -2.22775,-1.15063 -4.40533,-1.24089 -6.21005,-0.51151 -2.06751,0.85255 -3.69638,2.81311 -4.58548,5.36428 -0.55505,1.56668 -0.85398,3.40898 -0.91462,5.3128 -0.0555,1.90814 0.12809,3.88651 0.52594,5.71494 -0.1598,-1.7661 -0.0923,-3.52942 0.17638,-5.11838 0.27469,-1.58388 0.74975,-3.00079 1.39482,-4.0752 1.03236,-1.77219 2.61978,-2.85519 4.3471,-3.03743 1.78044,-0.14968 3.79624,0.57764 5.43748,2.16235 1.13769,1.01693 2.28282,2.6393 3.33623,4.51499 1.03552,1.86382 1.93752,4.04094 2.69519,6.3419 0.0338,0.0874 0.068,0.17789 0.10148,0.26612 0.62227,1.68647 1.15353,3.36845 1.47271,4.96504 0.29201,1.49411 0.47319,2.92294 0.40733,4.05484 -0.0231,0.7699 -0.14695,1.53241 -0.35528,2.22118 -0.20831,0.6888 -0.49934,1.30284 -0.85602,1.78153 -0.35367,0.48587 -0.80258,0.85801 -1.30241,1.09638 -0.49982,0.23836 -1.05007,0.34427 -1.61268,0.30333 -0.65267,-0.0479 -1.3496,-0.29589 -2.00652,-0.7198 -0.65899,-0.43381 -1.28431,-1.01004 -1.7813,-1.68532 -0.36211,-0.45036 -0.71302,-1.04047 -1.04961,-1.71427 -0.33658,-0.6738 -0.65955,-1.43283 -0.96816,-2.22756 -0.32683,-0.85596 -0.61536,-1.78441 -0.88215,-2.7607 -0.26678,-0.9763 -0.5117,-2.00095 -0.75141,-3.0494 -0.28077,-1.38818 -0.53283,-2.62307 -0.69558,-3.68588 -0.16275,-1.06281 -0.23674,-1.95482 -0.19444,-2.66604 0.0125,-0.40267 0.0383,-0.76755 0.0776,-1.08508 0.0393,-0.31754 0.0928,-0.5825 0.16447,-0.79266 0.0791,-0.2312 0.1635,-0.43844 0.24893,-0.60001 0.0854,-0.16157 0.17226,-0.28225 0.25656,-0.34542 0.0884,-0.12751 0.24845,-0.18587 0.43846,-0.22033 0.19001,-0.0345 0.41102,-0.0428 0.63308,-0.0466 0.18745,0.005 0.3828,0.0374 0.57673,0.0804 0.19394,0.043 0.38549,0.0954 0.56775,0.14606 0.18226,0.0506 0.3542,0.0975 0.50988,0.13585 0.15568,0.0384 0.29308,0.0708 0.41046,0.0849 0.0858,0.0122 0.15107,0.0116 0.20052,9.5e-4 0.10265,-0.0222 0.16156,-0.0768 0.1687,-0.16888 0.007,-0.092 -0.0372,-0.22643 -0.13834,-0.3974 -0.0464,-0.0785 -0.10804,-0.16479 -0.19231,-0.26731 -0.21737,-0.26073 -0.52612,-0.58454 -0.9164,-0.94349 -0.19513,-0.17948 -0.41071,-0.3648 -0.64538,-0.5489 -0.23466,-0.18411 -0.48819,-0.37044 -0.75965,-0.52881 -0.30148,-0.17275 -0.63237,-0.33742 -0.97852,-0.45037 -0.34614,-0.11295 -0.70855,-0.1718 -1.0599,-0.10448 -0.24998,0.0328 -0.50741,0.13322 -0.76162,0.31241 -0.27398,0.32295 -0.50982,0.73859 -0.70122,1.2147 -0.33595,0.83679 -0.51996,1.91222 -0.58359,3.07965 -0.14133,2.33543 0.30648,5.10689 0.87019,7.94944 0.48686,2.36818 1.04611,4.68714 1.8058,6.85664 0.75995,2.16232 1.70214,4.21181 2.83907,5.81897 0.85469,1.22517 1.84554,2.22795 2.86627,2.96213 1.02671,0.73616 2.08841,1.198 3.11134,1.35883 0.34037,0.0534 0.67685,0.0741 1.00773,0.063 0.8308,0.13818 1.59273,0.0984 2.28195,-0.0586 0.68922,-0.15696 1.30637,-0.43327 1.86233,-0.79938 0.44347,-0.29166 0.8491,-0.64034 1.21906,-1.03639 0.36996,-0.39605 0.70527,-0.83805 1.0101,-1.3252 0.0888,-0.14184 0.173,-0.29255 0.25649,-0.44212 0.29538,0.45498 0.61797,0.86933 0.97209,1.24073 0.37197,0.39014 0.77743,0.73148 1.22238,1.01606 0.55781,0.35723 1.17769,0.62668 1.86769,0.77265 0.69,0.14597 1.45242,0.17083 2.28249,0.0194 0.33092,0.006 0.66548,-0.0227 1.00556,-0.0815 1.02207,-0.17713 2.08385,-0.65126 3.10674,-1.40376 1.01692,-0.75043 1.99919,-1.76807 2.84756,-3.00682 1.12864,-1.62521 2.0622,-3.6942 2.81103,-5.86855 0.74853,-2.18152 1.29561,-4.50636 1.7703,-6.88221 0.54912,-2.85142 0.98032,-5.63034 0.82703,-7.96342 -0.0696,-1.16637 -0.25681,-2.23789 -0.59703,-3.06929 -0.19384,-0.47304 -0.43377,-0.88611 -0.7094,-1.20468 -0.25511,-0.17513 -0.51269,-0.27226 -0.76283,-0.30104 -0.35169,-0.0617 -0.71103,0.007 -1.05658,0.12524 -0.34555,0.11846 -0.67762,0.28708 -0.9782,0.46463 -0.27064,0.16269 -0.52283,0.3501 -0.75654,0.53793 -0.23371,0.18784 -0.4466,0.37579 -0.64081,0.55837 -0.38841,0.36516 -0.69747,0.69611 -0.9135,0.96028 -0.0837,0.10387 -0.14325,0.192 -0.18924,0.27121 -0.10024,0.17258 -0.1435,0.30606 -0.13589,0.39799 0.008,0.0919 0.0659,0.14541 0.16862,0.16592 0.0495,0.01 0.11419,0.007 0.19988,-0.006 0.11731,-0.016 0.25676,-0.0458 0.41224,-0.0867 0.15548,-0.0409 0.32659,-0.0893 0.50858,-0.14279 0.182,-0.0535 0.37256,-0.11249 0.56627,-0.15856 0.19371,-0.0461 0.38935,-0.0794 0.57678,-0.087 0.22207,1.9e-4 0.44169,0.004 0.63187,0.0355 0.19018,0.0314 0.35181,0.0882 0.44082,0.21425 0.0846,0.0618 0.17142,0.17852 0.25766,0.33873 0.0863,0.16021 0.17026,0.36371 0.25055,0.59363 0.0728,0.20901 0.1302,0.477 0.17111,0.79389 0.0409,0.3169 0.0683,0.6834 0.0829,1.08586 0.046,0.71051 -0.0281,1.60037 -0.18536,2.66574 -0.15729,1.06536 -0.39893,2.30655 -0.67257,3.69915 -0.23432,1.05224 -0.47527,2.08159 -0.73704,3.0621 -0.26177,0.98051 -0.54337,1.91254 -0.8658,2.77368 -0.30452,0.79962 -0.62594,1.56206 -0.95906,2.2412 -0.33312,0.67914 -0.67999,1.27521 -1.03978,1.73133 -0.4935,0.68318 -1.11682,1.26822 -1.77356,1.71251 -0.65471,0.43437 -1.34882,0.69719 -2.00121,0.75553 -0.56239,0.0499 -1.11445,-0.0495 -1.61547,-0.27992 -0.50103,-0.23039 -0.95157,-0.59435 -1.30771,-1.07456 -0.35912,-0.47298 -0.65472,-1.0826 -0.86656,-1.76805 -0.21186,-0.68542 -0.33894,-1.4479 -0.36596,-2.21739 -0.0716,-1.13081 0.10329,-2.56148 0.38762,-4.06019 0.31098,-1.60161 0.83337,-3.29706 1.44697,-4.99338 0.033,-0.0888 0.0657,-0.17718 0.0991,-0.26516 0.74585,-2.31294 1.63655,-4.50193 2.66247,-6.38218 1.04374,-1.89241 2.18104,-3.53505 3.31347,-4.57008 1.63304,-1.61081 3.64649,-2.36426 5.42761,-2.24297 1.7282,0.15469 3.31872,1.20719 4.36013,2.96284 0.65055,1.06408 1.13475,2.47072 1.41755,4.05016 0.27682,1.58461 0.35417,3.35011 0.20343,5.11868 0.38845,-1.83469 0.5602,-3.81163 0.49489,-5.71881 -0.0704,-1.90277 -0.37585,-3.74294 -0.9389,-5.30072 -0.90215,-2.53689 -2.54182,-4.47326 -4.61362,-5.29282 -1.80838,-0.70057 -3.98482,-0.57889 -6.20658,0.60721 2.0344,-2.69201 4.63322,-4.78264 7.33311,-5.71757 3.09019,-1.07678 6.31992,-0.6866 9.04145,1.63815 1.68965,1.46394 3.13579,3.63862 4.19799,6.44431 0.0381,0.0998 0.0758,0.19877 0.11291,0.30019 -0.0214,-0.11485 -0.0436,-0.22932 -0.066,-0.34278 -0.3271,-1.67296 -0.76449,-3.19521 -1.2895,-4.56131 -0.52502,-1.3661 -1.13838,-2.57676 -1.82164,-3.63092 -0.23678,-0.36016 -0.47774,-0.7012 -0.72703,-1.02131 z"
           style="fill:#000000;fill-opacity:1;stroke:#000000;stroke-width:0;stroke-linecap:butt;stroke-linejoin:miter;stroke-miterlimit:4;stroke-opacity:1;stroke-dasharray:none" />
        <path
           transform="matrix(0.08928605,0,0,0.08928605,-369.6185,612.06943)"
           d="m 219.46699,328.30103 c 0,27.32153 -22.55118,49.47001 -50.36947,49.47001 -27.81829,0 -50.36947,-22.14848 -50.36947,-49.47001 0,-27.32154 22.55118,-49.47002 50.36947,-49.47002 27.81829,0 50.36947,22.14848 50.36947,49.47002 z"
           sodipodi:ry="49.470016"
           sodipodi:rx="50.369473"
           sodipodi:cy="328.30103"
           sodipodi:cx="169.09752"
           id="path4090"
           style="fill:#000000;fill-opacity:1;fill-rule:evenodd;stroke:none"
           sodipodi:type="arc" />
        <path
           sodipodi:type="arc"
           style="fill:#000000;fill-opacity:1;fill-rule:evenodd;stroke:none"
           id="path4092"
           sodipodi:cx="169.09752"
           sodipodi:cy="328.30103"
           sodipodi:rx="50.369473"
           sodipodi:ry="49.470016"
           d="m 219.46699,328.30103 c 0,27.32153 -22.55118,49.47001 -50.36947,49.47001 -27.81829,0 -50.36947,-22.14848 -50.36947,-49.47001 0,-27.32154 22.55118,-49.47002 50.36947,-49.47002 27.81829,0 50.36947,22.14848 50.36947,49.47002 z"
           transform="matrix(0.08928605,0,0,0.08928605,-350.45177,612.06943)" />
        <path
           sodipodi:type="arc"
           style="fill:#000000;fill-opacity:1;fill-rule:evenodd;stroke:none"
           id="path4094"
           sodipodi:cx="169.09752"
           sodipodi:cy="328.30103"
           sodipodi:rx="50.369473"
           sodipodi:ry="49.470016"
           d="m 219.46699,328.30103 c 0,27.32153 -22.55118,49.47001 -50.36947,49.47001 -27.81829,0 -50.36947,-22.14848 -50.36947,-49.47001 0,-27.32154 22.55118,-49.47002 50.36947,-49.47002 27.81829,0 50.36947,22.14848 50.36947,49.47002 z"
           transform="matrix(0.04635659,0,0,0.04635659,-362.77263,626.28814)" />
        <path
           transform="matrix(0.04635659,0,0,0.04635659,-343.60589,626.28814)"
           d="m 219.46699,328.30103 c 0,27.32153 -22.55118,49.47001 -50.36947,49.47001 -27.81829,0 -50.36947,-22.14848 -50.36947,-49.47001 0,-27.32154 22.55118,-49.47002 50.36947,-49.47002 27.81829,0 50.36947,22.14848 50.36947,49.47002 z"
           sodipodi:ry="49.470016"
           sodipodi:rx="50.369473"
           sodipodi:cy="328.30103"
           sodipodi:cx="169.09752"
           id="path4096"
           style="fill:#000000;fill-opacity:1;fill-rule:evenodd;stroke:none"
           sodipodi:type="arc" />
        <g
           style="fill:#000000;fill-opacity:1"
           transform="matrix(0.13557043,0,0,0.1544164,-373.47997,621.84666)"
           id="g4117">
          <path
             sodipodi:type="arc"
             style="fill:#000000;fill-opacity:1;fill-rule:evenodd;stroke:none"
             id="path4113"
             sodipodi:cx="209.57298"
             sodipodi:cy="290.52393"
             sodipodi:rx="112.43185"
             sodipodi:ry="47.671108"
             d="m 322.00483,290.52393 c 0,26.32802 -50.33745,47.6711 -112.43185,47.6711 -62.09439,0 -112.431844,-21.34308 -112.431844,-47.6711 0,-26.32803 50.337454,-47.67111 112.431844,-47.67111 62.0944,0 112.43185,21.34308 112.43185,47.67111 z" />
          <path
             d="m 322.00483,290.52393 c 0,26.32802 -50.33745,47.6711 -112.43185,47.6711 -62.09439,0 -112.431844,-21.34308 -112.431844,-47.6711 0,-26.32803 50.337454,-47.67111 112.431844,-47.67111 62.0944,0 112.43185,21.34308 112.43185,47.67111 z"
             sodipodi:ry="47.671108"
             sodipodi:rx="112.43185"
             sodipodi:cy="290.52393"
             sodipodi:cx="209.57298"
             id="path4115"
             style="fill:#000000;fill-opacity:1;fill-rule:evenodd;stroke:none"
             sodipodi:type="arc"
             transform="matrix(0.56603774,0,0,0.56603774,90.946765,126.07642)" />
        </g>
        <path
           inkscape:connector-curvature="0"
           id="path4123"
           d="m -352.13361,666.29752 13.43339,0.19755"
           style="fill:#000000;fill-opacity:1;stroke:#000000;stroke-width:0.10981642px;stroke-linecap:butt;stroke-linejoin:miter;stroke-opacity:1" />
        <path
           inkscape:connector-curvature="0"
           id="path3142"
           d="m -352.10569,664.39902 c 0,0 2.31772,0.0341 2.31772,0.0341 0,0 -0.0546,3.70915 -0.0546,3.70915 0,0 -2.31772,-0.0341 -2.31772,-0.0341 0,0 0.0546,-3.70915 0.0546,-3.70915 m 3.70522,0.0545 c 0,0 2.31772,0.0341 2.31772,0.0341 0,0 -0.0546,3.70915 -0.0546,3.70915 0,0 -2.31771,-0.0341 -2.31771,-0.0341 0,0 0.0545,-3.70915 0.0545,-3.70915 m 3.70523,0.0545 c 0,0 2.31771,0.0341 2.31771,0.0341 0,0 -0.0545,3.70915 -0.0545,3.70915 0,0 -2.31772,-0.0341 -2.31772,-0.0341 0,0 0.0546,-3.70914 0.0546,-3.70914 m 3.70522,0.0545 c 0,0 2.31772,0.0341 2.31772,0.0341 0,0 -0.0546,3.70914 -0.0546,3.70914 0,0 -2.31772,-0.0341 -2.31772,-0.0341 0,0 0.0546,-3.70914 0.0546,-3.70914"
           style="fill:#000000;fill-opacity:1;fill-rule:evenodd;stroke:none" />
        <path
           sodipodi:type="arc"
           style="fill:#000000;fill-opacity:1;fill-rule:evenodd;stroke:none"
           id="path4370"
           sodipodi:cx="343.59177"
           sodipodi:cy="178.09206"
           sodipodi:rx="19.788008"
           sodipodi:ry="19.788008"
           d="m 363.37977,178.09206 c 0,10.92861 -8.85939,19.788 -19.788,19.788 -10.92862,0 -19.78801,-8.85939 -19.78801,-19.788 0,-10.92862 8.85939,-19.78801 19.78801,-19.78801 10.92861,0 19.788,8.85939 19.788,19.78801 z"
           transform="matrix(0.06732817,0,0,0.06732817,-358.77896,629.47509)" />
        <path
           transform="matrix(0.06732817,0,0,0.06732817,-377.81168,629.47509)"
           d="m 363.37977,178.09206 c 0,10.92861 -8.85939,19.788 -19.788,19.788 -10.92862,0 -19.78801,-8.85939 -19.78801,-19.788 0,-10.92862 8.85939,-19.78801 19.78801,-19.78801 10.92861,0 19.788,8.85939 19.788,19.78801 z"
           sodipodi:ry="19.788008"
           sodipodi:rx="19.788008"
           sodipodi:cy="178.09206"
           sodipodi:cx="343.59177"
           id="path4372"
           style="fill:#000000;fill-opacity:1;fill-rule:evenodd;stroke:none"
           sodipodi:type="arc" />
        <path
           sodipodi:type="arc"
           style="fill:#000000;fill-opacity:1;fill-rule:evenodd;stroke:none"
           id="path4374"
           sodipodi:cx="431.73834"
           sodipodi:cy="381.36887"
           sodipodi:rx="23.385826"
           sodipodi:ry="30.581465"
           d="m 455.12417,381.36887 c 0,16.88967 -10.47019,30.58146 -23.38583,30.58146 -12.91563,0 -23.38582,-13.69179 -23.38582,-30.58146 0,-3.19619 0.38315,-6.37261 1.13551,-9.4136 l 22.25031,9.4136 z"
           sodipodi:start="0"
           sodipodi:end="3.4544939"
           transform="matrix(-0.03882547,0.47863478,-0.28018933,0.10709987,-245.24957,396.03964)"
           inkscape:transform-center-x="2.6259909"
           inkscape:transform-center-y="5.366091" />
        <path
           inkscape:transform-center-y="5.366091"
           inkscape:transform-center-x="-2.6259946"
           transform="matrix(0.03882547,0.47863478,0.28018933,0.10709987,-445.07093,396.03964)"
           sodipodi:end="3.4544939"
           sodipodi:start="0"
           d="m 455.12417,381.36887 c 0,16.88967 -10.47019,30.58146 -23.38583,30.58146 -12.91563,0 -23.38582,-13.69179 -23.38582,-30.58146 0,-3.19619 0.38315,-6.37261 1.13551,-9.4136 l 22.25031,9.4136 z"
           sodipodi:ry="30.581465"
           sodipodi:rx="23.385826"
           sodipodi:cy="381.36887"
           sodipodi:cx="431.73834"
           id="path4376"
           style="fill:#000000;fill-opacity:1;fill-rule:evenodd;stroke:none"
           sodipodi:type="arc" />
        <path
           sodipodi:type="arc"
           style="fill:#000000;fill-opacity:1;fill-rule:evenodd;stroke:none"
           id="path4385"
           sodipodi:cx="-602.63477"
           sodipodi:cy="206.87462"
           sodipodi:rx="17.989098"
           sodipodi:ry="17.989098"
           d="m -584.64567,206.87462 c 0,9.9351 -8.05399,17.9891 -17.9891,17.9891 -9.9351,0 -17.98909,-8.054 -17.98909,-17.9891 0,-9.93511 8.05399,-17.9891 17.98909,-17.9891 9.93511,0 17.9891,8.05399 17.9891,17.9891 z"
           transform="matrix(0.0951636,0,0,0.0951636,-293.03255,633.49732)" />
        <path
           transform="matrix(0.0951636,0,0,0.0951636,-281.99358,633.11667)"
           d="m -584.64567,206.87462 c 0,9.9351 -8.05399,17.9891 -17.9891,17.9891 -9.9351,0 -17.98909,-8.054 -17.98909,-17.9891 0,-9.93511 8.05399,-17.9891 17.98909,-17.9891 9.93511,0 17.9891,8.05399 17.9891,17.9891 z"
           sodipodi:ry="17.989098"
           sodipodi:rx="17.989098"
           sodipodi:cy="206.87462"
           sodipodi:cx="-602.63477"
           id="path4387"
           style="fill:#000000;fill-opacity:1;fill-rule:evenodd;stroke:none"
           sodipodi:type="arc" />
      </g>
    </g>
  </g>
</svg>
