<?xml version="1.0" encoding="UTF-8" standalone="no"?>
<!-- Created with Inkscape (http://www.inkscape.org/) -->

<svg
   xmlns:dc="http://purl.org/dc/elements/1.1/"
   xmlns:cc="http://creativecommons.org/ns#"
   xmlns:rdf="http://www.w3.org/1999/02/22-rdf-syntax-ns#"
   xmlns:svg="http://www.w3.org/2000/svg"
   xmlns="http://www.w3.org/2000/svg"
   xmlns:sodipodi="http://sodipodi.sourceforge.net/DTD/sodipodi-0.dtd"
   xmlns:inkscape="http://www.inkscape.org/namespaces/inkscape"
   width="107"
   height="107"
   id="svg2"
   version="1.1"
   inkscape:version="0.48.4 r9939"
   sodipodi:docname="suitor.svg">
  <defs
     id="defs4">
    <inkscape:perspective
       sodipodi:type="inkscape:persp3d"
       inkscape:vp_x="0 : 526.18109 : 1"
       inkscape:vp_y="0 : 1000 : 0"
       inkscape:vp_z="744.09448 : 526.18109 : 1"
       inkscape:persp3d-origin="372.04724 : 350.78739 : 1"
       id="perspective10" />
    <inkscape:perspective
       id="perspective2824"
       inkscape:persp3d-origin="0.5 : 0.33333333 : 1"
       inkscape:vp_z="1 : 0.5 : 1"
       inkscape:vp_y="0 : 1000 : 0"
       inkscape:vp_x="0 : 0.5 : 1"
       sodipodi:type="inkscape:persp3d" />
    <inkscape:perspective
       id="perspective2838"
       inkscape:persp3d-origin="0.5 : 0.33333333 : 1"
       inkscape:vp_z="1 : 0.5 : 1"
       inkscape:vp_y="0 : 1000 : 0"
       inkscape:vp_x="0 : 0.5 : 1"
       sodipodi:type="inkscape:persp3d" />
    <inkscape:perspective
       id="perspective2854"
       inkscape:persp3d-origin="0.5 : 0.33333333 : 1"
       inkscape:vp_z="1 : 0.5 : 1"
       inkscape:vp_y="0 : 1000 : 0"
       inkscape:vp_x="0 : 0.5 : 1"
       sodipodi:type="inkscape:persp3d" />
  </defs>
  <sodipodi:namedview
     id="base"
     pagecolor="#ffffff"
     bordercolor="#666666"
     borderopacity="1.0"
     inkscape:pageopacity="0.0"
     inkscape:pageshadow="2"
     inkscape:zoom="4"
     inkscape:cx="-6.5338256"
     inkscape:cy="79.606315"
     inkscape:document-units="px"
     inkscape:current-layer="layer1"
     showgrid="false"
     inkscape:window-width="1600"
     inkscape:window-height="843"
     inkscape:window-x="0"
     inkscape:window-y="0"
     inkscape:window-maximized="1" />
  <metadata
     id="metadata7">
    <rdf:RDF>
      <cc:Work
         rdf:about="">
        <dc:format>image/svg+xml</dc:format>
        <dc:type
           rdf:resource="http://purl.org/dc/dcmitype/StillImage" />
        <dc:title></dc:title>
      </cc:Work>
    </rdf:RDF>
  </metadata>
  <g
     inkscape:label="Camada 1"
     inkscape:groupmode="layer"
     id="layer1"
     transform="translate(-6.63076,-541.80116)">
    <g
       id="g5601">
      <path
         id="path3602"
         d="m 56.742334,547.27285 1.608866,2.97641 1.488201,2.6144 2.574186,3.09707 3.579727,3.21773 4.223274,3.17751 2.171969,-0.0402 2.091526,-0.9251 2.051304,-2.21219 2.735073,-3.49928 1.568644,-2.05131 0.563103,4.98749 1.287093,15.08312 0.563103,5.02771 0,8.24543 -0.160886,9.41187 -0.281552,6.07347 -1.045763,11.10118 -1.769752,11.62406 -2.212191,12.79048 -0.24133,0.40222 -6.475686,-22.68501 -5.34948,-19.58795 -2.815516,-9.73364 -3.097067,-12.10672 -3.016624,-12.06649 -1.407758,-7.84323 -0.08044,-2.37307 0.442439,-2.25242 0.563103,-2.21219 0.442438,-0.24133 z"
         style="fill:none;fill-opacity:1;stroke:none"
         inkscape:connector-curvature="0" />
      <path
         id="path3600"
         d="m 62.695139,565.9357 3.579727,-1.28709 2.292634,-1.24687 2.091526,0.48266 3.177511,-0.68377 2.493742,1.68931 -1.850196,3.01662 -1.327315,2.25241 -0.723989,2.25242 -0.201109,1.89041 0.683769,2.97641 2.091526,5.42992 1.447979,4.98748 0.643546,6.59636 0.522882,6.39524 1.246871,15.88755 1.045763,8.52699 -0.48266,3.13729 -1.769752,9.93475 -0.442439,-0.20111 -4.183051,-14.92223 -3.579728,-13.35359 -3.257954,-11.86539 -1.930639,-7.07901 0.683768,-1.60887 1.407758,-11.46317 0.442438,-3.9015 0.04022,-1.32731 -1.246871,-4.54505 -2.895959,-1.97086 z"
         style="fill:#141414;fill-opacity:1;stroke:none"
         inkscape:connector-curvature="0" />
      <path
         sodipodi:nodetypes="cssssccscccccsssscc"
         id="path2860"
         d="m 9.76715,643.08016 c 0.75139,-16.73248 0.881566,-33.49397 1.82279,-50.21322 0.26379,-4.6858 0.165992,-9.4565 1.720908,-13.94864 0.890824,-2.57358 0.876377,-5.54324 2.992281,-7.55835 2.479052,-2.36097 5.220438,-4.52776 8.427206,-5.82402 9.521057,-3.84865 18.99405,-8.06905 27.954065,-13.03691 1.187826,-1.4977 2.375652,-2.99538 3.563478,-4.49308 -0.574345,2.22304 -1.166441,4.32723 -0.709565,6.71616 1.680016,8.7845 3.766017,17.52669 5.947651,26.21931 5.350677,19.30441 10.701356,38.60881 16.052033,57.91322 2.336408,-11.19789 3.858228,-22.55961 5.066094,-33.92967 0.871117,-8.70346 0.394964,-17.46941 0.62211,-26.20274 -0.889349,-8.43932 -1.662235,-16.88908 -2.275284,-25.35312 0.775068,1.55826 1.8139,2.66483 3.452582,3.48013 6.645318,3.30625 13.687731,6.11617 19.979521,10.01963 2.0659,1.2817 4.15796,2.64363 5.09668,5.1353 1.41059,3.74411 0.94385,7.69459 0.92896,11.56559 -0.0763,19.83309 -0.56948,39.67361 -0.85421,59.51041 -33.262436,0 -66.524868,0 -99.7873,0 z"
         style="fill:#141414;fill-opacity:1;stroke:#000000;stroke-width:0.64354646px;stroke-linecap:butt;stroke-linejoin:miter;stroke-opacity:1"
         inkscape:connector-curvature="0" />
      <path
         sodipodi:nodetypes="cscc"
         id="path3634"
         d="m 55.77622,548.99932 c 0.942494,-2.4148 0.858402,-2.03736 1.927807,0.31408 2.383311,5.24049 7.563918,9.56512 12.303209,12.875 5.327959,1.50172 8.467095,-6.6906 10.82958,-8.54505"
         style="fill:none;stroke:#000000;stroke-width:0.64354646px;stroke-linecap:butt;stroke-linejoin:miter;stroke-opacity:1"
         inkscape:connector-curvature="0" />
      <path
         id="path3636"
         d="m 58.116859,566.85826 c 4.304429,-0.53043 8.435229,-2.13165 12.02648,-4.55056"
         style="fill:none;stroke:#000000;stroke-width:0.64354646px;stroke-linecap:butt;stroke-linejoin:miter;stroke-opacity:1"
         inkscape:connector-curvature="0" />
      <path
         sodipodi:nodetypes="csc"
         id="path3638"
         d="m 72.174835,562.3077 c 2.51312,0.70709 4.208273,2.7853 6.257022,4.14426 0.990817,0.65722 2.437799,0.43339 3.656702,0.65008"
         style="fill:none;stroke:#000000;stroke-width:0.64354646px;stroke-linecap:butt;stroke-linejoin:miter;stroke-opacity:1"
         inkscape:connector-curvature="0" />
      <path
         sodipodi:nodetypes="cc"
         id="path3640"
         d="m 68.396671,563.36825 c 2.360303,1.054 3.073983,0.50252 5.62448,-0.25088"
         style="fill:none;stroke:#000000;stroke-width:0.64354646px;stroke-linecap:butt;stroke-linejoin:miter;stroke-opacity:1"
         inkscape:connector-curvature="0" />
      <path
         sodipodi:nodetypes="cssc"
         id="path3642"
         d="m 62.261115,565.92378 c 1.536347,0.78235 3.457019,1.48984 3.871967,3.44926 0.394311,1.86196 1.058904,3.55696 0.720676,5.52217 -0.930844,5.40846 -1.202322,10.99142 -2.479883,16.34106"
         style="fill:none;stroke:#000000;stroke-width:0.64354646px;stroke-linecap:butt;stroke-linejoin:miter;stroke-opacity:1"
         inkscape:connector-curvature="0" />
      <path
         sodipodi:nodetypes="cccssc"
         id="path3644"
         d="m 76.644137,564.7455 c -1.743767,2.17026 -3.340727,4.42047 -4.051614,7.15322 -0.577081,1.54688 -0.355193,3.09498 0.09936,4.52593 1.956149,4.68613 3.407984,9.66361 4.113381,14.67509 1.07702,7.65167 1.026888,15.42469 1.824982,23.12128 0.416227,4.01397 0.780822,7.90674 1.224077,11.91765"
         style="fill:none;stroke:#000000;stroke-width:0.64354646px;stroke-linecap:butt;stroke-linejoin:miter;stroke-opacity:1"
         inkscape:connector-curvature="0" />
      <path
         id="path3646"
         d="M 78.025561,643.24267 C 65.917818,622.14215 53.810074,601.04164 41.702332,579.94112 c 6.220219,-4.71833 11.160066,-10.88559 15.276885,-17.4709"
         style="fill:none;stroke:#000000;stroke-width:0.64354646px;stroke-linecap:butt;stroke-linejoin:miter;stroke-opacity:1"
         inkscape:connector-curvature="0" />
      <path
         sodipodi:nodetypes="cscssc"
         id="path3648"
         d="m 81.275959,557.8384 c 2.383535,3.84136 4.192667,8.05149 7.34421,11.38385 2.463335,2.60465 5.395082,4.60745 8.176451,6.81839 -0.365303,7.67942 -0.392956,15.37546 -1.522676,23.00253 -0.818552,5.52625 -2.190046,10.91395 -4.090452,16.16765 -3.362176,9.29482 -7.169571,18.40435 -10.720132,27.62555"
         style="fill:none;stroke:#000000;stroke-width:0.64354646px;stroke-linecap:butt;stroke-linejoin:miter;stroke-opacity:1"
         inkscape:connector-curvature="0" />
      <path
         sodipodi:nodetypes="ccsc"
         id="path3650"
         d="m 48.609432,573.92788 c -2.25822,-0.97103 -4.547397,-1.88557 -6.500797,-3.41292 2.449132,-5.79383 5.26447,-11.47187 9.265119,-16.369 0.288521,-0.35317 1.028306,-1.22216 1.298679,-1.58946"
         style="fill:none;stroke:#000000;stroke-width:0.64354646px;stroke-linecap:butt;stroke-linejoin:miter;stroke-opacity:1"
         inkscape:connector-curvature="0" />
      <path
         sodipodi:nodetypes="cssssc"
         id="path3652"
         d="m 30.572164,642.88333 c 0.487316,-7.60875 1.409313,-18.58875 2.441568,-26.13386 0.51045,-3.73106 0.47739,-7.43909 -0.167981,-11.10441 -1.279779,-7.26835 -3.130354,-14.50977 -5.352965,-21.54535 -1.440412,-4.55956 -2.896395,-10.22005 -6.550169,-13.66601 -0.595709,-0.56183 -2.0315,-1.38142 -2.0315,-1.38142"
         style="fill:none;stroke:#000000;stroke-width:0.64354646px;stroke-linecap:butt;stroke-linejoin:miter;stroke-opacity:1"
         inkscape:connector-curvature="0" />
      <path
         id="path3654"
         d="m 108.4168,570.0274 c -0.0814,4.10137 -0.14011,8.20547 -1.28099,12.17888 -1.87166,8.72409 -3.63492,17.47305 -4.62999,26.34692 -1.15718,11.34499 -2.29058,22.69286 -3.433916,34.03939"
         style="fill:none;stroke:#000000;stroke-width:0.64354646px;stroke-linecap:butt;stroke-linejoin:miter;stroke-opacity:1"
         inkscape:connector-curvature="0" />
      <path
         sodipodi:nodetypes="czcc"
         id="path3635"
         d="m 91.581944,572.33519 c 0.890237,-1.04108 2.19179,-2.48177 2.682771,-3.11405 0.490975,-0.63228 0.855956,-0.57917 0.715733,-0.73413 -3.363444,-4.21942 -7.785535,-7.53721 -11.020694,-11.85126"
         style="fill:none;stroke:#000000;stroke-width:0.64354646px;stroke-linecap:butt;stroke-linejoin:miter;stroke-opacity:1"
         inkscape:connector-curvature="0" />
    </g>
  </g>
</svg>
