<?xml version="1.0" encoding="UTF-8" standalone="no"?>
<!-- Created with Inkscape (http://www.inkscape.org/) -->

<svg
   xmlns:dc="http://purl.org/dc/elements/1.1/"
   xmlns:cc="http://creativecommons.org/ns#"
   xmlns:rdf="http://www.w3.org/1999/02/22-rdf-syntax-ns#"
   xmlns:svg="http://www.w3.org/2000/svg"
   xmlns="http://www.w3.org/2000/svg"
   xmlns:sodipodi="http://sodipodi.sourceforge.net/DTD/sodipodi-0.dtd"
   xmlns:inkscape="http://www.inkscape.org/namespaces/inkscape"
   width="107"
   height="107"
   id="svg2"
   version="1.1"
   inkscape:version="0.48.4 r9939"
   sodipodi:docname="whirlpool.svg">
  <defs
     id="defs4" />
  <sodipodi:namedview
     id="base"
     pagecolor="#ffffff"
     bordercolor="#666666"
     borderopacity="1.0"
     inkscape:pageopacity="0.0"
     inkscape:pageshadow="2"
     inkscape:zoom="1"
     inkscape:cx="-280.01695"
     inkscape:cy="47.738837"
     inkscape:document-units="px"
     inkscape:current-layer="layer1"
     showgrid="false"
     fit-margin-left="-2.7755576e-17"
     inkscape:window-width="1600"
     inkscape:window-height="843"
     inkscape:window-x="0"
     inkscape:window-y="0"
     inkscape:window-maximized="1" />
  <metadata
     id="metadata7">
    <rdf:RDF>
      <cc:Work
         rdf:about="">
        <dc:format>image/svg+xml</dc:format>
        <dc:type
           rdf:resource="http://purl.org/dc/dcmitype/StillImage" />
      </cc:Work>
    </rdf:RDF>
  </metadata>
  <g
     inkscape:label="Layer 1"
     inkscape:groupmode="layer"
     id="layer1"
     transform="translate(0,-945.36218)">
    <path
       sodipodi:type="spiral"
       style="fill:none;stroke:#000000;stroke-width:8;stroke-linecap:round;stroke-linejoin:miter;stroke-miterlimit:4;stroke-opacity:1;stroke-dasharray:none;marker-start:none"
       id="path2991"
       sodipodi:cx="100"
       sodipodi:cy="100"
       sodipodi:expansion="1"
       sodipodi:revolution="2.9980106"
       sodipodi:radius="79.953194"
       sodipodi:argument="-18.837057"
       sodipodi:t0="0"
       d="m 100,100 c 4.01107,0.0501 1.91134,5.43158 -0.08333,6.66667 -5.405429,3.347 -11.670438,-1.6476 -13.250003,-6.833329 C 83.841196,90.55729 91.416577,81.759429 100.24999,80 c 12.96339,-2.582032 24.59208,7.867171 26.41668,20.33332 2.4319,16.61541 -10.98618,31.1546 -27.083319,33.00001 C 79.32675,135.65559 61.844186,119.22818 60.000001,99.500022 57.766445,75.606582 77.223939,55.163708 100.58331,53.333334 128.11152,51.176302 151.52465,73.675906 153.33333,100.66664 155.42153,131.82851 129.87222,158.21826 99.250032,160 64.455151,162.02453 35.084448,133.42042 33.333335,99.166703 31.368851,60.739213 63.031354,28.384472 100.91663,26.666668 c 41.67152,-1.889481 76.85343,32.210004 79.03656,73.333273"
       transform="matrix(0.5475307,0,0,0.5475307,-4.8667067,947.7521)" />
  </g>
</svg>
